<svg version="1.0" xmlns="http://www.w3.org/2000/svg" width="682.667" height="682.667" viewBox="0 0 512 512"><path d="M235.5 73.2c-62.4 7-118.1 46.6-145 103-24.4 51.3-24.6 107.9-.4 158.8 31.7 66.5 99.6 107.6 172.9 104.7 80.7-3.3 148-56.5 170.4-134.7 3-10.7 5.4-24.8 6.2-37 .6-8.8.5-9.7-1.6-12.3-1.6-2-3-2.7-5.7-2.7-3.2 0-4.8 1.2-14.2 10.3-5.8 5.6-13.8 12.4-17.8 15-58.3 38.7-135.6 20.8-171.1-39.8-17.2-29.3-20.5-66.4-9.1-99.3 6.1-17.4 14.8-31 29.8-46.5 8.1-8.4 9.4-10.2 9.3-13-.1-2.1-.9-3.9-2.7-5.5-2.9-2.5-6.7-2.7-21-1z"/></svg>