<svg version="1.0" xmlns="http://www.w3.org/2000/svg" width="682.667" height="682.667" viewBox="0 0 512 512"><path d="M171.9 19.8c-30.7 12.3-56.5 29-80.3 52.2-47.3 46-72.8 103.2-75.3 169-3.2 85.8 38.9 166.9 111.3 214.6 86.4 57 200.5 53.2 283.9-9.5 11.4-8.6 31.8-28 41-39.1 16.4-19.8 30.4-43.6 40-68 5.1-13.2 4.3-19.4-3.6-25.3-4.6-3.3-9.4-3.2-21.9.6-22.6 6.8-41.7 9.7-65.2 9.7-47.1 0-91.5-15.1-130.3-44.3-10.3-7.8-31.4-28.9-39.2-39.2-29.4-39.1-44.3-82.9-44.3-130.8 0-23.1 2.9-42.2 9.7-64.7 3.8-12.5 3.9-17.4.6-21.9-6-7.9-12.7-8.8-26.4-3.3zm-12.5 47.9c-3.9 20.7-4.3 55.1-.9 77.3 11.5 74.8 54 138.4 117.9 176.3 50.1 29.6 110.4 40.9 167.4 31.3 3.9-.7 7.2-1 7.2-.6 0 1.5-9.6 16.7-16.3 25.7-46.7 62.8-125.6 95.3-203.1 83.8s-142.7-64.3-170-137.8C31.7 243.4 53 152.3 115.4 93.3c5.4-5.1 13.5-12.1 18.1-15.5 8.1-6 25-16.8 26.5-16.8.4 0 .1 3-.6 6.7z"/></svg>